<svg xmlns="http://www.w3.org/2000/svg" xmlns:xlink="http://www.w3.org/1999/xlink" width="115" height="115" viewBox="0 0 115 115">
  <defs>
    <clipPath id="clip-path">
      <rect id="Rectangle_16" data-name="Rectangle 16" width="115" height="115" transform="translate(7759 -135)" fill="#fff"/>
    </clipPath>
  </defs>
  <g id="Group_40" data-name="Group 40" transform="translate(-7759 135)">
    <g id="Group_39" data-name="Group 39">
      <g id="Group_38" data-name="Group 38" clip-path="url(#clip-path)">
        <g id="Group_37" data-name="Group 37">
          <g id="Group_36" data-name="Group 36" clip-path="url(#clip-path)">
            <path id="Path_43" data-name="Path 43" d="M7785.446-61.13a2.75,2.75,0,0,0-3.871.381,2.75,2.75,0,0,0,.381,3.87l6.24,5.124a2.743,2.743,0,0,0,1.744.625,2.745,2.745,0,0,0,2.127-1,2.751,2.751,0,0,0-.38-3.871Z" fill="#fff"/>
            <path id="Path_44" data-name="Path 44" d="M7787.525-70.377a2.749,2.749,0,0,0-3.4-1.885l-7.764,2.23a2.748,2.748,0,0,0-1.884,3.4,2.749,2.749,0,0,0,2.641,1.992,2.783,2.783,0,0,0,.761-.107l7.764-2.23a2.748,2.748,0,0,0,1.884-3.4" fill="#fff"/>
            <path id="Path_45" data-name="Path 45" d="M7793.718-90.136a2.734,2.734,0,0,0,1.055.211,2.749,2.749,0,0,0,2.54-1.694l3.624-8.711a2.751,2.751,0,0,0-1.483-3.6,2.752,2.752,0,0,0-3.6,1.483l-3.624,8.711a2.751,2.751,0,0,0,1.483,3.6" fill="#fff"/>
            <path id="Path_46" data-name="Path 46" d="M7782.573-81.753a2.747,2.747,0,0,0,2.393,1.392,2.739,2.739,0,0,0,1.357-.36,2.75,2.75,0,0,0,1.031-3.75l-5.015-8.822a2.748,2.748,0,0,0-3.749-1.031,2.748,2.748,0,0,0-1.032,3.749Z" fill="#fff"/>
            <path id="Path_47" data-name="Path 47" d="M7842.645-76.1A2.75,2.75,0,0,0,7838.86-77l-.329.2c.008-.243.018-.486.018-.731a21.471,21.471,0,0,0-3.512-11.786l.175-2.17a2.75,2.75,0,0,0-2.519-2.963,2.734,2.734,0,0,0-1.759.477,21.5,21.5,0,0,0-12.023-5.069c.063-.031.129-.043.191-.081a2.749,2.749,0,0,0,.994-3.759l-4.063-6.983a2.752,2.752,0,0,0-3.761-.994,2.752,2.752,0,0,0-.993,3.761l4.063,6.982a2.739,2.739,0,0,0,1.016,1,21.671,21.671,0,0,0-4.9.713l-.049-.217a2.752,2.752,0,0,0-3.286-2.08,2.752,2.752,0,0,0-2.08,3.287l.252,1.119a21.607,21.607,0,0,0-10.918,17.8,2.809,2.809,0,0,0-.889-.121,2.751,2.751,0,0,0-2.62,2.875l.421,9.1A2.751,2.751,0,0,0,7795.03-64c.043,0,.086,0,.129,0a2.75,2.75,0,0,0,2.62-2.874l-.037-.8a21.71,21.71,0,0,0,3.777,5.254l-2.771,4.581a2.749,2.749,0,0,0,.929,3.775,2.736,2.736,0,0,0,1.422.4A2.751,2.751,0,0,0,7803.454-55l2.415-3.991a21.468,21.468,0,0,0,11.08,3.068,21.63,21.63,0,0,0,19.986-13.418l4.815-2.976a2.751,2.751,0,0,0,.9-3.785m-17.19,9.174a13.539,13.539,0,0,1-6.677,2.867,13.614,13.614,0,0,1-1.829.138,13.612,13.612,0,0,1-13.376-11.207,13.568,13.568,0,0,1-.224-2.393,13.49,13.49,0,0,1,.719-4.343,13.663,13.663,0,0,1,4.109-6.033,13.58,13.58,0,0,1,5.033-2.689,13.535,13.535,0,0,1,3.739-.535,13.457,13.457,0,0,1,5.982,1.4,13.648,13.648,0,0,1,3.957,2.946,13.685,13.685,0,0,1,2.175,3.1,13.455,13.455,0,0,1,1.419,4.831c.042.434.067.873.067,1.319a13.568,13.568,0,0,1-5.094,10.6" fill="#fff"/>
            <path id="Path_48" data-name="Path 48" d="M7853.51-85.479a2.749,2.749,0,0,0-3,2.478l-1.033,10.862a2.749,2.749,0,0,0,2.476,3,2.618,2.618,0,0,0,.264.013,2.75,2.75,0,0,0,2.734-2.491l1.034-10.862a2.75,2.75,0,0,0-2.477-3" fill="#fff"/>
            <path id="Path_49" data-name="Path 49" d="M7851.6-99.382a2.75,2.75,0,0,0-3.817.742l-4.517,6.695a2.749,2.749,0,0,0,.741,3.817,2.74,2.74,0,0,0,1.535.471,2.75,2.75,0,0,0,2.283-1.212l4.516-6.695a2.75,2.75,0,0,0-.741-3.818" fill="#fff"/>
            <path id="Path_50" data-name="Path 50" d="M7829.428-103.856l7.215,3.631a2.729,2.729,0,0,0,1.234.294,2.748,2.748,0,0,0,2.458-1.514,2.75,2.75,0,0,0-1.219-3.693l-7.215-3.631a2.748,2.748,0,0,0-3.693,1.22,2.751,2.751,0,0,0,1.22,3.693" fill="#fff"/>
            <path id="Path_51" data-name="Path 51" d="M7866.777-48.17a37.965,37.965,0,0,1-4.88-.288,53.744,53.744,0,0,0,8.617-29.116,53.552,53.552,0,0,0-1.459-12.381,53.124,53.124,0,0,0-1.727-5.813,53.691,53.691,0,0,0-46.07-35.2q-2.133-.171-4.308-.171c-.355,0-.706.019-1.059.026a53.609,53.609,0,0,0-52.472,52.142c-.012.465-.036.928-.036,1.4,0,1.224.058,2.443.142,3.659a53.863,53.863,0,0,0,4.33,17.727c-.529-.017-1.071-.027-1.634-.027a4,4,0,0,0-4,4,4,4,0,0,0,4,4c7.469,0,10.972,1.682,15.027,3.629a37.513,37.513,0,0,0,18.489,4.416,37.51,37.51,0,0,0,18.491-4.416c3.682-1.766,6.918-3.31,13.065-3.582.626-.027,1.273-.047,1.964-.047,1.227,0,2.339.05,3.372.134a29.454,29.454,0,0,1,11.657,3.5,53.791,53.791,0,0,0,5.574,2.4,33.5,33.5,0,0,0,5.561,1.434,43.569,43.569,0,0,0,7.356.579,4,4,0,0,0,4-4,4,4,0,0,0-4-4m-6.326-19.4-3.178,7.427a2.751,2.751,0,0,0,.946,3.33,46.554,46.554,0,0,1-2.706,4.646,2.729,2.729,0,0,0-.844.026,2.726,2.726,0,0,0-1.584.969c-.444-.208-.887-.405-1.338-.622-1.528-.733-3.134-1.5-4.98-2.185a2.792,2.792,0,0,0,.455.039,2.746,2.746,0,0,0,2.119-.994,2.751,2.751,0,0,0-.36-3.872l-6.215-5.16a2.75,2.75,0,0,0-3.873.36,2.751,2.751,0,0,0,.36,3.872l6.215,5.159a2.725,2.725,0,0,0,.4.277,37.579,37.579,0,0,0-12.033-1.9l-.488-1.141a2.753,2.753,0,0,0-3.61-1.446,2.743,2.743,0,0,0-1.636,2.852,37.63,37.63,0,0,0-13.336,4.141c-.3.147-.6.29-.9.432a2.751,2.751,0,0,0-3.04.3l-2.162,1.774a30.993,30.993,0,0,1-8.923,1.124c-7.468,0-10.97-1.681-15.026-3.629a43.9,43.9,0,0,0-8.025-3.159,46.1,46.1,0,0,1-5.553-16.89l.474.127a2.79,2.79,0,0,0,.714.093,2.75,2.75,0,0,0,2.654-2.04,2.751,2.751,0,0,0-1.946-3.367l-2.257-.6a45.953,45.953,0,0,1,11.639-30.538l-1.276,3.278a2.749,2.749,0,0,0,1.566,3.559,2.728,2.728,0,0,0,1,.189,2.75,2.75,0,0,0,2.562-1.753l3.606-9.26a2.747,2.747,0,0,0-.294-2.551,46.108,46.108,0,0,1,13.629-6.932c-.026.019-.055.032-.08.053l-6.228,5.147a2.75,2.75,0,0,0-.37,3.871,2.75,2.75,0,0,0,2.123,1,2.744,2.744,0,0,0,1.75-.63l6.229-5.146a2.751,2.751,0,0,0,.368-3.872,2.735,2.735,0,0,0-1.84-.983,45.955,45.955,0,0,1,9.673-1.491,2.736,2.736,0,0,0,2.267,2.3,2.778,2.778,0,0,0,.441.036,2.749,2.749,0,0,0,2.7-2.267,45.987,45.987,0,0,1,8.613,1.443l-7.269,6.069a2.75,2.75,0,0,0-.349,3.873,2.748,2.748,0,0,0,2.113.987,2.74,2.74,0,0,0,1.762-.638l7.44-6.212a2.737,2.737,0,0,0,.938-2.567,46.429,46.429,0,0,1,5.567,2.571,2.725,2.725,0,0,0,.363,1.469l4.063,6.983a2.751,2.751,0,0,0,2.38,1.367,2.733,2.733,0,0,0,1.38-.374,2.737,2.737,0,0,0,1.353-2.5A46.272,46.272,0,0,1,7861.3-90.387a2.746,2.746,0,0,0,.078,3.538,2.751,2.751,0,0,0,.93.684,46.164,46.164,0,0,1,.814,8.591,46.87,46.87,0,0,1-.762,8.41,2.736,2.736,0,0,0-1.913,1.589" fill="#fff"/>
            <path id="Path_52" data-name="Path 52" d="M7866.778-23.878a37.508,37.508,0,0,1-18.491-4.416c-4.057-1.947-7.56-3.628-15.03-3.628s-10.972,1.681-15.029,3.628a37.51,37.51,0,0,1-18.491,4.416,37.5,37.5,0,0,1-18.488-4.416c-4.055-1.947-7.558-3.628-15.027-3.628a4,4,0,0,1-4-4,4,4,0,0,1,4-4,37.5,37.5,0,0,1,18.489,4.416c4.056,1.947,7.558,3.628,15.026,3.628s10.974-1.682,15.03-3.628a37.51,37.51,0,0,1,18.49-4.416,37.513,37.513,0,0,1,18.491,4.416c4.056,1.946,7.559,3.628,15.03,3.628a4,4,0,0,1,4,4,4,4,0,0,1-4,4" fill="#fff"/>
          </g>
        </g>
      </g>
    </g>
  </g>
</svg>
